{"title":"Turbo.2013.HDCAM.x264.2Audio - SmY","uid":8964495,"size":1764368039,"categoryP":"video","categoryS":"movies","magnet":"?xt=urn:btih:29e767d68d0ebc699928faf1813c2dfa3e30448f&amp;dn=Turbo.2013.HDCAM.x264.2Audio+-+SmY&amp;tr=udp%3A%2F%2Ftracker.openbittorrent.com%3A80&amp;tr=udp%3A%2F%2Fopen.demonii.com%3A1337&amp;tr=udp%3A%2F%2Ftracker.coppersurfer.tk%3A6969&amp;tr=udp%3A%2F%2Fexodus.desync.com%3A6969","seeders":1,"leechers":0,"uploader":"xxxlavalxxx","files":-1,"time":1380184804,"description":" &lt;a href=&quot;http://www.imdb.com/title/tt1860353/&quot; rel=&quot;nofollow&quot; target=&quot;_NEW&quot;&gt;http://www.imdb.com/title/tt1860353/&lt;/a&gt;\n\n\n\nFrom the makers of MADAGASCAR and KUNG FU PANDA, TURBO is a high-velocity 3D comedy about a snail who dares to dream big - and fast. After a freak accident infuses him with the power of super-speed, Turbo kicks into overdrive and embarks on an extraordinary journey to achieve the seemingly impossible: competing in the world's fastest race, the Indianapolis 500. With the help of his tricked-out streetwise snail crew, this ultimate underdog puts his heart and shell on the line to prove that no dream is too big, and no dreamer too small.  \n\n\n\nDirector:\n David Soren \n\nWriters:\n Darren Lemke (screenplay), Robert D. Siegel (screenplay)\n\nStars:\n Ryan Reynolds, Paul Giamatti, Maya Rudolph\n\nGenres:\n  Animation |  Adventure |  Comedy |  Family |  Sport \n\nCountry:\n USA \n\nLanguage:\n English \n\n\nFormat: Matroska \n File size: 1.64 GiB \n Duration: 1H 40mn \n Overall bit Rate: 2 350 Kbps \n Encoded Date: UTC 2013-09-25 19:07:20 \n Writing Application: mkvmerge v5.2.0 ('I Can not EXPLAIN') Built on Dec 18 2011 18:12:03 \n Writing Library: libebml V1.2.3 + libmatroska v1.3.0 \n\n Video # 1 \n ID: 1 \n Format: AVC \n Format / Info: Advanced Video Codec \n Format Profile: &lt;a class=&quot;__cf_email__&quot; href=&quot;/cdn-cgi/l/email-protection&quot; data-cfemail=&quot;87cfeee0efc7cbb4a9b6&quot;&gt;[email&amp;#160;protected]&lt;/a&gt;&lt;script cf-hash='f9e31' type=&quot;text/javascript&quot;&gt;\n/* &lt;![CDATA[ */!function(){try{var t=&quot;currentScript&quot;in document?document.currentScript:function(){for(var t=document.getElementsByTagName(&quot;script&quot;),e=t.length;e--;)if(t[e].getAttribute(&quot;cf-hash&quot;))return t[e]}();if(t&amp;&amp;t.previousSibling){var e,r,n,i,c=t.previousSibling,a=c.getAttribute(&quot;data-cfemail&quot;);if(a){for(e=&quot;&quot;,r=parseInt(a.substr(0,2),16),n=2;a.length-n;n+=2)i=parseInt(a.substr(n,2),16)^r,e+=String.fromCharCode(i);e=document.createTextNode(e),c.parentNode.replaceChild(e,c)}}}catch(u){}}();/* ]]&gt; */&lt;/script&gt; \n Format settings, CABAC: Yes \n Format settings, reframes: 4 frames \n Muxing mode: Header Stripping \n Codec ID: V_MPEG4/ISO/AVC \n Duration: 1H 40mn \n Bit Rate: 1 887 Kbps \n Nominal bit Rate: 2 000 Kbps \n Width: 720 pixels \n Height: 306 pixels \n Display Aspect ratio: 2.35:1 \n Frame Rate: 29.970 fps \n Color space: YUV \n Chroma subsampling: 4:2:0 \n Bit Depth: 8 bits \n Scan type: Progressive \n Bits / (Pixel * Frame): 0.286 \n Stream size: 1.32 GiB (80%) \n Writing Library: 116 x264 r2074 2641b9e Core \n\n Audio # 2 \n ID: 2 \n Format: AC-3 \n Format / Info: Audio Coding 3 \n Mode Extension: CM (Complete main) \n Muxing mode: Header Stripping \n Codec ID: A_AC3 \n Duration: 1H 40mn \n Bit Rate mode: Constant \n Bit Rate: 224 Kbps \n Channel (s): 2 channels \n Channel positions: Front: LR \n Sampling Rate: 48.0 KHz \n Bit Depth: 16 bits \n Compression mode: Lossy \n Stream size: 160 MiB (10%) \n Audio # 3 \n ID: 3 \n Format: AC- 3 \n Format / Info: Audio Coding 3 \n Mode Extension: CM (Complete main) \n Muxing mode: Header Stripping \n Codec ID: A_AC3 \n Duration: 1H 40mn \n Bit Rate mode: Constant \n Bit Rate: 192 Kbps \n Channel (s): 2 channels \n Channel positions: Front : LR \n Sampling Rate: 48.0 KHz \n Bit Depth: 16 bits \n Compression mode: Lossy \n Stream size: 137 MiB (8%) \n Text # 4 \n ID: 4 \n Format: VobSub \n Muxing mode: zlib \n Codec ID: S_VOBSUB \n Codec ID / Info: The same SUBTITLE format used on DVDs \n Language: Chinese \n Text # 5 \n ID: 5 \n Format: VobSub \n Muxing mode: zlib \n Codec ID: S_VOBSUB \n Codec ID / Info: The same SUBTITLE format used on DVDs \n Language: Chinese\n\n Mandarin / English dual-channel, the default playback Mandarin, English, please adjust the player.\n\n\n &lt;a href=&quot;\nhttp://bayimg.com/dAAooAafA&quot; rel=&quot;nofollow&quot; target=&quot;_NEW&quot;&gt;\nhttp://bayimg.com/dAAooAafA&lt;/a&gt; &lt;a href=&quot;\nhttp://bayimg.com/DAaOPAAFA&quot; rel=&quot;nofollow&quot; target=&quot;_NEW&quot;&gt;\nhttp://bayimg.com/DAaOPAAFA&lt;/a&gt;","torrent":{"xt":"urn:btih:29e767d68d0ebc699928faf1813c2dfa3e30448f","amp;dn":"Turbo.2013.HDCAM.x264.2Audio+-+SmY","amp;tr":["udp%3A%2F%2Ftracker.openbittorrent.com%3A80","udp%3A%2F%2Fopen.demonii.com%3A1337","udp%3A%2F%2Ftracker.coppersurfer.tk%3A6969","udp%3A%2F%2Fexodus.desync.com%3A6969"],"infoHash":"29e767d68d0ebc699928faf1813c2dfa3e30448f","infoHashBuffer":{"type":"Buffer","data":[41,231,103,214,141,14,188,105,153,40,250,241,129,60,45,250,62,48,68,143]},"announce":[],"urlList":[]}}